<svg aria-hidden="true" style="position: absolute; width: 0; height: 0; overflow: hidden;" version="1.1" xmlns="http://www.w3.org/2000/svg" xmlns:xlink="http://www.w3.org/1999/xlink">
<defs>

   <!-- CHECK ICON -->
   <symbol id="icon__check" xmlns="http://www.w3.org/2000/svg" fill="currentColor" class="bi bi-check2" viewBox="0 0 16 16">
   <path d="M13.854 3.646a.5.5 0 0 1 0 .708l-7 7a.5.5 0 0 1-.708 0l-3.5-3.5a.5.5 0 1 1 .708-.708L6.5 10.293l6.646-6.647a.5.5 0 0 1 .708 0z"/>
   </symbol>


   <!-- ICON CROSS -->
   <symbol id="icon__cross" xmlns="http://www.w3.org/2000/svg" fill="currentColor" class="bi bi-x-lg" viewBox="0 0 16 16">
   <path fill-rule="evenodd" d="M13.854 2.146a.5.5 0 0 1 0 .708l-11 11a.5.5 0 0 1-.708-.708l11-11a.5.5 0 0 1 .708 0Z"/>
   <path fill-rule="evenodd" d="M2.146 2.146a.5.5 0 0 0 0 .708l11 11a.5.5 0 0 0 .708-.708l-11-11a.5.5 0 0 0-.708 0Z"/>
   </symbol>


   <!-- ICON PENCIL -->
   <symbol id="icon__pencil" xmlns="http://www.w3.org/2000/svg" width="16" height="16" fill="currentColor" class="bi bi-pencil" viewBox="0 0 16 16">
   <path d="M12.146.146a.5.5 0 0 1 .708 0l3 3a.5.5 0 0 1 0 .708l-10 10a.5.5 0 0 1-.168.11l-5 2a.5.5 0 0 1-.65-.65l2-5a.5.5 0 0 1 .11-.168l10-10zM11.207 2.5 13.5 4.793 14.793 3.5 12.5 1.207 11.207 2.5zm1.586 3L10.5 3.207 4 9.707V10h.5a.5.5 0 0 1 .5.5v.5h.5a.5.5 0 0 1 .5.5v.5h.293l6.5-6.5zm-9.761 5.175-.106.106-1.528 3.821 3.821-1.528.106-.106A.5.5 0 0 1 5 12.5V12h-.5a.5.5 0 0 1-.5-.5V11h-.5a.5.5 0 0 1-.468-.325z"/>
   </symbol>


   <!-- EDIT ICON -->
  <symbol id="icon__edit" xmlns="http://www.w3.org/2000/svg" class="bi bi-pen" viewBox="0 0 16 16">
    <path d="m13.498.795.149-.149a1.207 1.207 0 1 1 1.707 1.708l-.149.148a1.5 1.5 0 0 1-.059 2.059L4.854 14.854a.5.5 0 0 1-.233.131l-4 1a.5.5 0 0 1-.606-.606l1-4a.5.5 0 0 1 .131-.232l9.642-9.642a.5.5 0 0 0-.642.056L6.854 4.854a.5.5 0 1 1-.708-.708L9.44.854A1.5 1.5 0 0 1 11.5.796a1.5 1.5 0 0 1 1.998-.001zm-.644.766a.5.5 0 0 0-.707 0L1.95 11.756l-.764 3.057 3.057-.764L14.44 3.854a.5.5 0 0 0 0-.708l-1.585-1.585z"/>
  </symbol>


  <svg xmlns="http://www.w3.org/2000/svg" id="icon__pencil-post" class="bi bi-pencil-square" viewBox="0 0 16 16">
    <path d="M15.502 1.94a.5.5 0 0 1 0 .706L14.459 3.69l-2-2L13.502.646a.5.5 0 0 1 .707 0l1.293 1.293zm-1.75 2.456-2-2L4.939 9.21a.5.5 0 0 0-.121.196l-.805 2.414a.25.25 0 0 0 .316.316l2.414-.805a.5.5 0 0 0 .196-.12l6.813-6.814z"/>
    <path fill-rule="evenodd" d="M1 13.5A1.5 1.5 0 0 0 2.5 15h11a1.5 1.5 0 0 0 1.5-1.5v-6a.5.5 0 0 0-1 0v6a.5.5 0 0 1-.5.5h-11a.5.5 0 0 1-.5-.5v-11a.5.5 0 0 1 .5-.5H9a.5.5 0 0 0 0-1H2.5A1.5 1.5 0 0 0 1 2.5v11z"/>
  </svg>

  <!-- ICON TRASH -->
  <symbol id="icon__trash" xmlns="http://www.w3.org/2000/svg" class="bi bi-trash" viewBox="0 0 16 16">
    <path d="M5.5 5.5A.5.5 0 0 1 6 6v6a.5.5 0 0 1-1 0V6a.5.5 0 0 1 .5-.5zm2.5 0a.5.5 0 0 1 .5.5v6a.5.5 0 0 1-1 0V6a.5.5 0 0 1 .5-.5zm3 .5a.5.5 0 0 0-1 0v6a.5.5 0 0 0 1 0V6z"/>
    <path fill-rule="evenodd" d="M14.5 3a1 1 0 0 1-1 1H13v9a2 2 0 0 1-2 2H5a2 2 0 0 1-2-2V4h-.5a1 1 0 0 1-1-1V2a1 1 0 0 1 1-1H6a1 1 0 0 1 1-1h2a1 1 0 0 1 1 1h3.5a1 1 0 0 1 1 1v1zM4.118 4 4 4.059V13a1 1 0 0 0 1 1h6a1 1 0 0 0 1-1V4.059L11.882 4H4.118zM2.5 3V2h11v1h-11z"/>
  </symbol>


  <symbol id="icon__home" xmlns="http://www.w3.org/2000/svg" class="bi bi-house" viewBox="0 0 16 16">
    <path fill-rule="evenodd" d="M2 13.5V7h1v6.5a.5.5 0 0 0 .5.5h9a.5.5 0 0 0 .5-.5V7h1v6.5a1.5 1.5 0 0 1-1.5 1.5h-9A1.5 1.5 0 0 1 2 13.5zm11-11V6l-2-2V2.5a.5.5 0 0 1 .5-.5h1a.5.5 0 0 1 .5.5z"/>
    <path fill-rule="evenodd" d="M7.293 1.5a1 1 0 0 1 1.414 0l6.647 6.646a.5.5 0 0 1-.708.708L8 2.207 1.354 8.854a.5.5 0 1 1-.708-.708L7.293 1.5z"/>
  </symbol>












</defs>
</svg>





